<svg width="25" height="22" viewBox="0 0 25 22" fill="none" xmlns="http://www.w3.org/2000/svg">
<path d="M22.2222 0.122314H2.77778C1.25 0.122314 0 1.17374 0 2.45882V18.8144C0 20.1006 1.25 21.1509 2.77778 21.1509H12.5V12.9731H9.72222V10.0817H12.5V7.68675C12.5 5.15865 14.1833 3.38291 17.7306 3.38291L20.2347 3.38525V6.42855H18.5722C17.1917 6.42855 16.6667 7.30006 16.6667 8.10849V10.0828H20.2333L19.4444 12.9731H16.6667V21.1509H22.2222C23.75 21.1509 25 20.1006 25 18.8144V2.45882C25 1.17374 23.75 0.122314 22.2222 0.122314Z" fill="#4DFFFF"/>
</svg>
