<svg width="25" height="22" viewBox="0 0 25 22" fill="none" xmlns="http://www.w3.org/2000/svg">
<path d="M22.3214 0.122314H2.67857C1.19978 0.122314 0 1.1315 0 2.37537V18.8978C0 20.1417 1.19978 21.1509 2.67857 21.1509H22.3214C23.8002 21.1509 25 20.1417 25 18.8978V2.37537C25 1.1315 23.8002 0.122314 22.3214 0.122314ZM15.4743 18.1327C15.0056 18.2031 14.8326 17.959 14.8326 17.7572C14.8326 17.5037 14.8438 16.2082 14.8438 15.1615C14.8438 14.4292 14.5536 13.9646 14.2132 13.7205C16.2779 13.528 18.4542 13.2886 18.4542 10.2892C18.4542 9.43496 18.0915 9.00782 17.5 8.45864C17.5949 8.2568 17.9129 7.42598 17.4051 6.34639C16.6295 6.14456 14.8549 7.1866 14.8549 7.1866C14.1183 7.01292 13.3203 6.92374 12.5335 6.92374C11.7467 6.92374 10.9487 7.01292 10.2121 7.1866C10.2121 7.1866 8.4375 6.14456 7.66183 6.34639C7.15402 7.42129 7.46652 8.25211 7.56696 8.45864C6.97545 9.00782 6.69643 9.43496 6.69643 10.2892C6.69643 13.2746 8.7779 13.528 10.8426 13.7205C10.5748 13.9223 10.3348 14.2697 10.2511 14.7672C9.72098 14.969 8.36495 15.3164 7.5558 14.1148C7.04799 13.3731 6.13281 13.3121 6.13281 13.3121C5.22879 13.3027 6.07143 13.7909 6.07143 13.7909C6.67411 14.0256 7.09821 14.9268 7.09821 14.9268C7.63951 16.3209 10.2288 15.8515 10.2288 15.8515C10.2288 16.5039 10.24 17.5648 10.24 17.7572C10.24 17.959 10.0725 18.2031 9.59821 18.1327C5.91518 17.0954 3.33705 14.1476 3.33705 10.7023C3.33705 6.39333 7.25446 3.1217 12.3772 3.1217C17.5 3.1217 21.6518 6.39333 21.6518 10.7023C21.6574 14.1476 19.1574 17.1001 15.4743 18.1327ZM10 15.2648C9.89397 15.2835 9.79353 15.246 9.78237 15.185C9.7712 15.1146 9.84375 15.0535 9.94978 15.0348C10.0558 15.0254 10.1562 15.0629 10.1674 15.1239C10.1842 15.185 10.1116 15.246 10 15.2648ZM9.46987 15.2225C9.46987 15.2835 9.38616 15.3352 9.27455 15.3352C9.15179 15.3446 9.06808 15.2929 9.06808 15.2225C9.06808 15.1615 9.15178 15.1099 9.26339 15.1099C9.36942 15.1005 9.46987 15.1521 9.46987 15.2225ZM8.70536 15.1709C8.68303 15.2319 8.57143 15.2601 8.47656 15.2319C8.37054 15.2131 8.29799 15.1427 8.32031 15.0817C8.34263 15.0207 8.45424 14.9925 8.54911 15.0113C8.66071 15.0394 8.73326 15.1099 8.70536 15.1709ZM8.01897 14.9174C7.96875 14.969 7.86272 14.9597 7.77902 14.8892C7.69531 14.8282 7.67299 14.739 7.72879 14.6968C7.77902 14.6452 7.88504 14.6546 7.96875 14.725C8.0413 14.786 8.0692 14.8799 8.01897 14.9174ZM7.51116 14.4903C7.46094 14.5184 7.36607 14.4903 7.30469 14.4199C7.2433 14.3494 7.2433 14.2697 7.30469 14.2368C7.36607 14.1946 7.46094 14.2274 7.51116 14.2978C7.57254 14.3682 7.57254 14.4527 7.51116 14.4903ZM7.14844 14.035C7.09821 14.0772 7.01451 14.0537 6.95312 14.0068C6.89174 13.9458 6.88058 13.8754 6.9308 13.8425C6.98103 13.8003 7.06473 13.8237 7.12612 13.8707C7.1875 13.9317 7.19866 14.0021 7.14844 14.035ZM6.77455 13.6876C6.75223 13.7299 6.67969 13.7392 6.6183 13.7064C6.54576 13.6782 6.51228 13.6266 6.5346 13.5843C6.55692 13.5562 6.6183 13.5421 6.69085 13.5656C6.76339 13.5984 6.79688 13.6501 6.77455 13.6876Z" fill="#4DFFFF"/>
</svg>
