<svg width="25" height="22" viewBox="0 0 25 22" fill="none" xmlns="http://www.w3.org/2000/svg">
<path d="M12.5 8.81745C11.9113 8.81764 11.336 8.96463 10.8466 9.23986C10.3573 9.51508 9.97593 9.90617 9.75081 10.3637C9.52569 10.8212 9.46691 11.3246 9.58188 11.8102C9.69686 12.2958 9.98044 12.7418 10.3968 13.0919C10.8131 13.4419 11.3435 13.6803 11.9208 13.7768C12.4982 13.8734 13.0966 13.8237 13.6405 13.6342C14.1843 13.4447 14.6491 13.1238 14.9761 12.7121C15.3031 12.3003 15.4777 11.8163 15.4777 11.3212C15.4771 10.6571 15.1631 10.0204 14.6048 9.55099C14.0465 9.08153 13.2894 8.8177 12.5 8.81745ZM19.4593 6.89296C19.3077 6.56995 19.0789 6.27657 18.787 6.03103C18.4951 5.78549 18.1463 5.59301 17.7623 5.46556C16.5904 5.07643 13.8002 5.16374 12.5 5.16374C11.1998 5.16374 8.41239 5.07315 7.23717 5.46556C6.85315 5.59301 6.50436 5.78549 6.21245 6.03103C5.92053 6.27657 5.69171 6.56995 5.54018 6.89296C5.07812 7.87868 5.18136 10.228 5.18136 11.3207C5.18136 12.4134 5.07812 14.7599 5.54241 15.7489C5.69394 16.0719 5.92276 16.3653 6.21468 16.6108C6.5066 16.8564 6.85538 17.0488 7.2394 17.1763C8.41127 17.5654 11.2015 17.4781 12.5022 17.4781C13.803 17.4781 16.5893 17.5687 17.7645 17.1763C18.1485 17.0488 18.4973 16.8564 18.7892 16.6108C19.0811 16.3653 19.31 16.0719 19.4615 15.7489C19.9275 14.7632 19.8203 12.4139 19.8203 11.3212C19.8203 10.2284 19.9275 7.88243 19.4615 6.89343L19.4593 6.89296ZM12.5 15.1701C11.595 15.1701 10.7103 14.9444 9.95777 14.5215C9.20527 14.0985 8.61876 13.4974 8.27243 12.7941C7.92609 12.0908 7.83547 11.3169 8.01203 10.5703C8.18859 9.82364 8.6244 9.13782 9.26435 8.59953C9.90431 8.06124 10.7197 7.69466 11.6073 7.54614C12.4949 7.39763 13.415 7.47385 14.2511 7.76517C15.0873 8.05649 15.8019 8.54983 16.3047 9.18279C16.8075 9.81575 17.0759 10.5599 17.0759 11.3212C17.0766 11.8268 16.9588 12.3276 16.7291 12.7948C16.4994 13.2621 16.1623 13.6866 15.7373 14.0442C15.3122 14.4017 14.8075 14.6852 14.252 14.8784C13.6965 15.0716 13.1011 15.1708 12.5 15.1701ZM17.2645 8.20913C17.0532 8.20922 16.8467 8.15661 16.671 8.05794C16.4952 7.95928 16.3583 7.819 16.2773 7.65485C16.1964 7.49069 16.1752 7.31004 16.2163 7.13574C16.2575 6.96143 16.3592 6.8013 16.5085 6.67561C16.6579 6.54992 16.8482 6.46431 17.0554 6.42961C17.2626 6.3949 17.4774 6.41267 17.6726 6.48065C17.8678 6.54864 18.0346 6.66379 18.152 6.81154C18.2694 6.95929 18.332 7.13301 18.332 7.31072C18.3326 7.42873 18.3055 7.54567 18.2522 7.65485C18.199 7.76402 18.1206 7.86328 18.0216 7.94692C17.9227 8.03056 17.805 8.09695 17.6755 8.14227C17.5459 8.18758 17.407 8.21094 17.2667 8.211L17.2645 8.20913ZM22.3214 0.806885H2.67857C1.96817 0.806885 1.28686 1.04426 0.784535 1.46679C0.282206 1.88932 0 2.4624 0 3.05994L0 19.5824C0 20.1799 0.282206 20.753 0.784535 21.1755C1.28686 21.5981 1.96817 21.8354 2.67857 21.8354H22.3214C23.0318 21.8354 23.7131 21.5981 24.2155 21.1755C24.7178 20.753 25 20.1799 25 19.5824V3.05994C25 2.4624 24.7178 1.88932 24.2155 1.46679C23.7131 1.04426 23.0318 0.806885 22.3214 0.806885ZM21.3661 14.4191C21.2941 15.6222 20.9676 16.6881 19.9235 17.564C18.8795 18.4399 17.6133 18.7201 16.1847 18.7774C14.7109 18.8473 10.2924 18.8473 8.81864 18.7774C7.38839 18.7168 6.12556 18.4418 5.0798 17.564C4.03404 16.6863 3.70536 15.6198 3.63728 14.4191C3.55413 13.179 3.55413 9.46192 3.63728 8.22321C3.70926 7.02017 4.03181 5.95419 5.0798 5.07831C6.12779 4.20243 7.39397 3.9255 8.81864 3.86823C10.2924 3.79829 14.7109 3.79829 16.1847 3.86823C17.615 3.92878 18.8817 4.20384 19.9235 5.0816C20.9654 5.95935 21.298 7.0258 21.3661 8.22884C21.4492 9.46427 21.4492 13.1781 21.3661 14.4191Z" fill="#4DFFFF"/>
</svg>
