<svg width="25" height="22" viewBox="0 0 25 22" fill="none" xmlns="http://www.w3.org/2000/svg">
<path d="M4.89907 0.122314C2.20496 0.122314 0 1.97696 0 4.24313V17.0307C0 19.2969 2.20491 21.1509 4.89907 21.1509H20.1017C22.7959 21.1509 25 19.2969 25 17.0307V4.24313C25 1.977 22.7959 0.122314 20.1017 0.122314H4.89907ZM6.13125 3.59245C7.42302 3.59245 8.21869 4.30576 8.24325 5.24339C8.24325 6.16032 7.42297 6.89367 6.10627 6.89367H6.08203C4.81485 6.89367 3.99582 6.16036 3.99582 5.24339C3.99582 4.30578 4.83964 3.59245 6.13123 3.59245H6.13125ZM17.2631 7.97482C19.7474 7.97482 21.6098 9.34064 21.6098 12.2757V17.755H17.8343V12.6431C17.8343 11.3585 17.2879 10.4821 15.9216 10.4821C14.8785 10.4821 14.2568 11.0728 13.9838 11.6434C13.8841 11.8476 13.8596 12.1327 13.8596 12.4183V17.755H10.0841C10.0841 17.755 10.1337 9.09555 10.0841 8.19892H13.8604V9.55215C14.3621 8.90103 15.2595 7.9748 17.2631 7.9748V7.97482ZM4.21852 8.19961H7.99399V17.755H4.21852V8.19961Z" fill="#4DFFFF"/>
</svg>
