<svg width="32" height="32" viewBox="0 0 32 32" fill="none" xmlns="http://www.w3.org/2000/svg">
<path d="M21.2297 15.2C21.2297 16.176 20.4069 16.976 19.3646 16.976C18.3406 16.976 17.4994 16.176 17.4994 15.2C17.4994 14.224 18.3223 13.424 19.3646 13.424C20.4069 13.424 21.2297 14.224 21.2297 15.2ZM12.6903 13.424C11.648 13.424 10.8251 14.224 10.8251 15.2C10.8251 16.176 11.6663 16.976 12.6903 16.976C13.7326 16.976 14.5554 16.176 14.5554 15.2C14.5737 14.224 13.7326 13.424 12.6903 13.424ZM32 3.296V32C27.3933 28.4379 28.8666 29.617 23.5154 25.264L24.4846 28.224H3.74857C1.68229 28.224 0 26.752 0 24.928V3.296C0 1.472 1.68229 0 3.74857 0H28.2514C30.3177 0 32 1.472 32 3.296ZM26.7886 18.464C26.7886 13.312 24.1554 9.136 24.1554 9.136C21.5223 7.408 19.0171 7.456 19.0171 7.456L18.7611 7.712C21.8697 8.544 23.3143 9.744 23.3143 9.744C18.9706 7.66094 13.8683 7.66056 9.65486 9.28C8.97829 9.552 8.576 9.744 8.576 9.744C8.576 9.744 10.0937 8.48 13.3851 7.648L13.2023 7.456C13.2023 7.456 10.6971 7.408 8.064 9.136C8.064 9.136 5.43086 13.312 5.43086 18.464C5.43086 18.464 6.96686 20.784 11.008 20.896C11.008 20.896 11.6846 20.176 12.2331 19.568C9.91086 18.96 9.03314 17.68 9.03314 17.68C9.30214 17.8447 9.74572 18.0583 9.78286 18.08C12.8693 19.5924 17.2534 20.0879 21.1931 18.64C21.8331 18.432 22.5463 18.128 23.296 17.696C23.296 17.696 22.3817 19.008 19.9863 19.6C20.5349 20.208 21.1931 20.896 21.1931 20.896C25.2343 20.784 26.7886 18.464 26.7886 18.464Z" fill="#4DFFFF"/>
</svg>
